<svg xmlns="http://www.w3.org/2000/svg" xmlns:xlink="http://www.w3.org/1999/xlink" width="1080" zoomAndPan="magnify" viewBox="0 0 810 809.999993" height="1080" preserveAspectRatio="xMidYMid meet" version="1.0"><defs><clipPath id="77344303c9"><path d="M 353 288 L 473 288 L 473 750.492188 L 353 750.492188 Z M 353 288 " clip-rule="nonzero"/></clipPath><clipPath id="6d4a5a4b32"><path d="M 267 464 L 355 464 L 355 750.492188 L 267 750.492188 Z M 267 464 " clip-rule="nonzero"/></clipPath></defs><path fill="#eba118" d="M 643.53125 302.363281 C 654.25 266.203125 631.242188 233.332031 603.515625 212.894531 C 590.792969 203.460938 575.785156 193.886719 565.78125 185.882812 C 546.203125 169.875 532.625 148.433594 518.046875 130.570312 C 457.589844 56.25 358.257812 68.113281 302.660156 140.71875 C 287.511719 160.441406 273.503906 180.734375 254.78125 197.457031 C 245.632812 205.746094 231.914062 215.179688 220.621094 224.328125 C 205.332031 236.90625 191.179688 254.914062 185.75 273.921875 C 178.03125 300.933594 189.75 326.519531 213.046875 342.238281 C 214.476562 343.238281 214.476562 343.382812 212.761719 342.667969 C 211.191406 341.953125 209.332031 340.808594 207.046875 339.378906 C 148.445312 299.933594 176.316406 242.480469 219.910156 208.320312 C 231.054688 199.601562 243.347656 190.882812 252.921875 181.59375 C 266.214844 168.730469 279.9375 149.148438 287.796875 138.574219 C 320.382812 94.554688 368.261719 65.539062 424.71875 70.398438 C 464.449219 73.828125 499.609375 93.125 525.90625 122.710938 C 538.628906 137.144531 551.777344 155.582031 567.210938 169.589844 C 578.214844 179.59375 595.222656 190.167969 606.230469 198.03125 C 628.238281 213.609375 646.675781 237.476562 651.394531 263.773438 C 655.679688 287.355469 650.105469 310.796875 634.8125 329.089844 C 597.226562 373.824219 513.902344 377.542969 460.734375 376.96875 C 460.304688 376.96875 460.019531 376.683594 460.019531 376.398438 C 458.734375 359.246094 457.160156 341.953125 455.589844 324.800781 C 455.589844 324.660156 455.589844 324.660156 455.730469 324.800781 C 463.304688 337.664062 468.023438 349.386719 471.597656 364.105469 C 471.882812 365.25 472.167969 365.25 472.3125 364.105469 C 475.453125 345.957031 465.164062 331.949219 455.589844 318.941406 C 455.300781 318.65625 455.445312 318.226562 455.730469 317.941406 C 456.015625 317.800781 456.304688 317.800781 456.589844 317.941406 C 470.167969 329.519531 479.886719 343.953125 485.460938 360.960938 C 485.601562 361.246094 485.886719 361.535156 486.316406 361.390625 C 486.601562 361.246094 486.746094 360.960938 486.746094 360.675781 C 485.03125 338.238281 473.167969 327.230469 456.730469 314.65625 C 455.875 314.082031 455.445312 313.226562 455.589844 312.082031 L 455.875 304.222656 C 455.875 304.078125 456.015625 303.9375 456.304688 303.9375 C 456.445312 303.9375 456.445312 303.9375 456.589844 304.078125 C 463.734375 312.082031 471.023438 319.941406 478.457031 327.804688 C 488.890625 338.808594 495.605469 346.667969 500.179688 359.246094 C 500.324219 359.53125 500.609375 359.675781 501.039062 359.675781 C 501.324219 359.53125 501.46875 359.246094 501.46875 358.960938 C 497.464844 335.523438 475.742188 316.800781 457.304688 303.9375 C 456.589844 303.363281 456.304688 302.507812 456.304688 301.648438 C 458.445312 287.785156 452.445312 281.355469 439.4375 278.496094 C 424.289062 275.351562 406.28125 274.636719 391.84375 279.351562 C 378.554688 283.640625 379.554688 296.359375 378.695312 307.792969 C 378.554688 309.511719 377.550781 310.652344 376.265625 311.367188 C 359.828125 321.660156 344.25 330.089844 342.820312 352.242188 C 342.820312 352.53125 342.964844 352.671875 343.25 352.671875 C 343.394531 352.671875 343.535156 352.53125 343.679688 352.386719 C 348.824219 340.09375 356.542969 329.804688 366.976562 321.230469 C 370.835938 318.085938 374.550781 314.941406 378.265625 311.511719 C 378.839844 311.082031 379.125 311.082031 378.980469 311.941406 L 378.554688 317.800781 C 378.554688 318.226562 378.265625 318.65625 377.839844 318.941406 C 364.261719 327.660156 355.398438 338.523438 355.257812 355.246094 C 355.257812 355.53125 355.398438 355.675781 355.683594 355.675781 C 355.828125 355.675781 356.113281 355.53125 356.113281 355.386719 C 359.972656 343.8125 366.261719 334.09375 375.121094 325.804688 C 375.980469 324.945312 376.980469 324.230469 378.125 323.660156 C 378.554688 323.375 378.695312 323.515625 378.695312 324.089844 L 378.695312 326.660156 C 378.695312 327.089844 378.554688 327.375 378.410156 327.660156 C 371.835938 337.953125 368.546875 346.097656 369.976562 358.390625 C 370.121094 358.960938 370.261719 359.105469 370.40625 358.390625 L 377.839844 337.664062 C 377.839844 337.523438 378.125 337.378906 378.265625 337.378906 C 378.410156 337.378906 378.554688 337.523438 378.554688 337.664062 L 380.125 374.109375 C 380.125 374.539062 379.980469 374.683594 379.554688 374.683594 C 343.394531 372.539062 308.378906 367.25 274.503906 358.53125 C 249.636719 352.242188 214.90625 339.808594 201.042969 316.800781 C 187.179688 293.789062 200.898438 278.496094 220.195312 267.347656 C 235.199219 258.628906 250.78125 251.484375 267.074219 245.910156 C 340.820312 220.753906 421.144531 209.890625 498.324219 224.613281 C 520.191406 228.757812 544.628906 235.476562 571.785156 244.621094 C 598.65625 254.054688 638.53125 270.0625 643.53125 302.363281 C 643.390625 302.648438 643.53125 302.648438 643.53125 302.363281 Z M 401.992188 229.472656 L 414.710938 266.203125 C 415 267.203125 415.285156 267.203125 415.285156 266.0625 C 415.714844 252.625 412.140625 238.621094 402.421875 229.042969 C 401.847656 228.472656 401.707031 228.617188 401.992188 229.472656 Z M 388.84375 230.902344 L 407.996094 268.777344 C 407.996094 268.917969 408.136719 268.917969 408.28125 268.917969 L 408.425781 268.917969 C 410.140625 268.0625 407.136719 258.914062 401.847656 248.339844 L 401.707031 247.910156 C 396.417969 237.476562 390.703125 229.617188 389.128906 230.472656 L 388.988281 230.472656 C 388.84375 230.617188 388.84375 230.757812 388.84375 230.902344 Z M 419.859375 230.617188 L 417.570312 231.332031 C 417.140625 231.472656 416.855469 231.757812 417 232.332031 C 418.429688 244.621094 420.285156 256.769531 422.714844 268.917969 C 422.859375 269.921875 423.003906 269.921875 423.144531 268.917969 C 424.429688 259.34375 424.289062 248.765625 422.859375 237.191406 C 422.574219 234.617188 422 232.617188 421 231.1875 C 420.859375 230.617188 420.429688 230.472656 419.859375 230.617188 Z M 401.421875 267.917969 C 396.847656 256.054688 387.984375 237.191406 375.550781 231.046875 C 374.980469 230.757812 374.835938 230.902344 375.265625 231.332031 C 383.554688 243.90625 392.128906 256.054688 401.277344 268.0625 C 401.136719 268.0625 401.277344 268.0625 401.421875 267.917969 Z M 433.433594 232.761719 C 429.289062 235.761719 429.289062 258.914062 429.71875 264.347656 C 429.863281 266.488281 430.433594 266.632812 431.003906 264.488281 C 434.4375 254.339844 435.578125 243.90625 434.292969 233.1875 C 434.292969 232.902344 434.007812 232.617188 433.722656 232.617188 C 433.578125 232.617188 433.578125 232.617188 433.433594 232.761719 Z M 446.871094 233.902344 C 439.582031 244.335938 435.292969 255.914062 434.148438 268.777344 C 434.148438 268.917969 434.292969 269.207031 434.4375 269.207031 C 434.578125 269.207031 434.722656 269.207031 434.722656 269.0625 C 440.726562 258.199219 445.15625 246.765625 448.15625 234.617188 C 448.300781 234.1875 448.015625 233.761719 447.585938 233.761719 C 447.441406 233.617188 447.15625 233.617188 446.871094 233.902344 Z M 359.402344 234.476562 C 371.40625 246.195312 382.984375 258.199219 394.132812 270.777344 C 394.273438 270.921875 394.273438 270.921875 394.417969 270.777344 C 394.417969 270.777344 394.558594 270.632812 394.417969 270.492188 C 387.128906 255.769531 375.265625 240.621094 359.6875 233.902344 C 359.542969 233.902344 359.402344 233.902344 359.402344 234.046875 C 359.257812 234.332031 359.257812 234.476562 359.402344 234.476562 Z M 462.878906 234.902344 C 452.300781 242.480469 444.441406 256.484375 441.582031 268.632812 C 441.4375 269.207031 441.582031 269.207031 441.867188 268.777344 C 450.015625 258.199219 457.160156 247.050781 463.304688 235.332031 C 463.59375 234.617188 463.449219 234.476562 462.878906 234.902344 Z M 487.03125 235.332031 C 470.882812 241.191406 454.875 254.769531 447.441406 270.0625 C 447.300781 270.347656 447.441406 270.632812 447.726562 270.777344 C 447.871094 270.921875 448.15625 270.777344 448.300781 270.632812 C 461.164062 258.628906 473.3125 246.335938 487.175781 235.617188 C 487.890625 235.191406 487.890625 235.046875 487.03125 235.332031 Z M 343.679688 237.761719 C 348.109375 241.191406 352.253906 244.621094 356.398438 247.910156 C 365.402344 255.054688 375.980469 264.917969 386.84375 272.207031 C 387.558594 272.636719 387.699219 272.636719 387.128906 271.921875 C 381.125 264.347656 374.410156 257.484375 367.121094 251.195312 C 360.117188 245.195312 352.398438 240.476562 343.964844 237.191406 C 343.824219 237.191406 343.679688 237.191406 343.535156 237.332031 C 343.535156 237.476562 343.535156 237.621094 343.679688 237.761719 Z M 509.46875 239.335938 C 490.460938 243.765625 468.164062 255.914062 456.445312 272.351562 C 456.015625 272.921875 456.160156 273.0625 456.730469 272.636719 C 474.027344 261.203125 491.75 250.339844 509.757812 239.90625 C 509.898438 239.90625 510.042969 239.621094 509.898438 239.476562 C 509.757812 239.335938 509.613281 239.335938 509.46875 239.335938 Z M 332.101562 240.90625 C 347.253906 252.914062 362.546875 264.488281 379.839844 272.777344 C 380.410156 273.0625 380.554688 273.0625 379.980469 272.492188 C 368.546875 261.917969 356.113281 252.914062 342.535156 245.480469 C 339.105469 243.621094 335.675781 241.90625 332.246094 240.476562 C 332.101562 240.476562 332.101562 240.476562 332.101562 240.621094 C 331.960938 240.765625 331.960938 240.765625 332.101562 240.90625 Z M 309.519531 244.910156 C 322.242188 250.195312 334.675781 256.199219 346.824219 262.917969 C 356.257812 268.203125 365.832031 271.636719 375.550781 275.921875 C 376.410156 276.351562 376.410156 276.207031 375.695312 275.78125 C 354.828125 262.773438 334.53125 247.480469 309.519531 243.90625 C 309.378906 243.90625 309.09375 244.050781 309.09375 244.195312 C 309.09375 244.335938 309.09375 244.335938 309.09375 244.335938 C 308.949219 244.765625 309.234375 244.910156 309.519531 244.910156 Z M 466.308594 271.207031 C 487.746094 263.488281 511.1875 256.34375 531.195312 245.195312 C 532.050781 244.765625 531.910156 244.621094 531.050781 244.765625 C 508.042969 249.769531 486.460938 258.484375 466.164062 270.921875 C 465.449219 271.347656 465.449219 271.492188 466.308594 271.207031 Z M 291.371094 248.765625 C 303.089844 256.484375 317.238281 260.488281 330.246094 265.488281 C 343.25 270.632812 357.828125 274.636719 371.550781 279.640625 C 371.691406 279.640625 371.835938 279.640625 371.835938 279.496094 C 371.835938 279.351562 371.835938 279.351562 371.691406 279.210938 C 358.257812 272.207031 344.394531 265.917969 329.816406 260.488281 C 318.523438 256.199219 304.234375 252.625 291.65625 248.195312 C 291.511719 248.195312 291.371094 248.195312 291.371094 248.339844 C 291.226562 248.480469 291.226562 248.625 291.371094 248.765625 Z M 472.023438 273.777344 C 480.171875 271.921875 488.460938 270.0625 496.609375 268.347656 C 515.757812 264.347656 534.625 259.058594 553.0625 252.484375 C 553.492188 252.339844 553.492188 252.199219 553.0625 252.339844 C 536.625 253.484375 519.617188 257.914062 503.898438 262.34375 C 493.464844 265.203125 482.171875 270.207031 471.023438 274.066406 C 470.882812 274.066406 470.882812 274.207031 471.023438 274.207031 C 471.597656 274.066406 471.738281 273.921875 472.023438 273.777344 Z M 276.21875 255.484375 C 297.945312 267.492188 325.242188 275.207031 350.539062 278.210938 C 354.113281 278.636719 357.972656 280.210938 361.832031 280.640625 C 362.972656 280.78125 362.972656 280.496094 361.972656 280.066406 C 360.542969 279.351562 358.257812 279.496094 357.113281 279.066406 C 350.113281 276.921875 276.363281 254.484375 276.078125 255.199219 C 276.078125 255.34375 276.078125 255.484375 276.21875 255.484375 Z M 262.5 259.914062 C 269.359375 263.488281 276.21875 266.488281 282.9375 269.0625 C 292.226562 272.492188 301.945312 276.636719 311.09375 278.925781 C 322.527344 281.78125 334.246094 283.355469 346.253906 283.640625 C 353.253906 283.785156 359.542969 284.5 365.117188 285.640625 C 365.691406 285.785156 366.261719 285.785156 366.691406 285.640625 C 367.261719 285.5 367.261719 285.355469 366.691406 285.210938 C 348.96875 281.210938 331.246094 277.496094 313.378906 274.066406 C 296.371094 270.777344 279.363281 264.203125 262.640625 259.34375 C 262.5 259.34375 262.355469 259.34375 262.214844 259.488281 C 262.355469 259.773438 262.355469 259.914062 262.5 259.914062 Z M 485.886719 274.066406 C 500.609375 273.636719 514.757812 272.492188 528.335938 270.632812 C 542.058594 268.777344 558.777344 264.203125 574.214844 261.628906 C 574.214844 261.628906 574.359375 261.628906 574.359375 261.488281 C 574.5 260.488281 555.207031 262.058594 553.207031 262.203125 C 543.488281 263.34375 526.90625 266.347656 503.46875 271.347656 C 497.320312 272.636719 491.035156 272.921875 484.746094 273.492188 C 484.460938 273.492188 484.316406 273.636719 484.746094 273.777344 C 484.746094 274.066406 485.316406 274.207031 485.886719 274.066406 Z M 240.632812 268.632812 C 272.789062 278.636719 305.804688 282.355469 338.964844 286.214844 C 341.394531 286.5 341.394531 286.355469 338.964844 285.785156 C 334.246094 284.785156 328.957031 284.210938 325.101562 283.355469 C 297.945312 277.210938 270.503906 272.207031 242.917969 268.203125 C 242.0625 268.0625 241.347656 268.0625 240.773438 268.0625 C 240.632812 268.0625 240.488281 268.203125 240.488281 268.347656 C 240.347656 268.492188 240.488281 268.632812 240.632812 268.632812 Z M 498.464844 277.636719 C 496.179688 278.066406 494.035156 277.636719 491.460938 277.636719 C 475.027344 277.636719 475.027344 277.921875 491.460938 278.066406 C 507.183594 278.351562 522.191406 278.496094 538.199219 276.351562 C 552.0625 274.492188 567.496094 271.777344 579.789062 271.347656 C 586.21875 271.0625 590.792969 270.921875 593.507812 270.777344 C 594.796875 270.777344 594.796875 270.632812 593.507812 270.347656 C 580.21875 268.0625 566.210938 268.0625 551.777344 269.921875 C 526.765625 273.492188 508.898438 276.066406 498.464844 277.636719 Z M 527.335938 280.496094 C 533.910156 282.496094 539.628906 283.496094 546.917969 283.355469 C 569.5 282.925781 590.652344 280.640625 613.660156 283.210938 C 614.664062 283.355469 614.664062 283.210938 613.804688 282.925781 C 591.652344 275.351562 562.78125 277.921875 540.34375 280.210938 C 535.769531 280.640625 531.765625 280.640625 527.480469 280.210938 C 527.335938 280.210938 527.335938 280.210938 527.335938 280.351562 C 527.191406 280.496094 527.191406 280.496094 527.335938 280.496094 Z M 503.609375 280.78125 C 505.753906 281.496094 508.328125 281.496094 510.328125 282.355469 C 520.191406 286.5 526.90625 288.929688 530.195312 289.929688 C 540.054688 292.644531 550.777344 292.789062 563.636719 292.644531 C 577.074219 292.5 590.363281 293.214844 603.800781 294.933594 C 604.515625 295.074219 604.515625 294.933594 603.941406 294.644531 C 589.363281 287.355469 568.070312 287.929688 552.203125 287.785156 C 538.484375 287.640625 528.480469 286.214844 516.472656 282.496094 C 514.472656 281.925781 510.183594 281.210938 503.753906 280.640625 C 502.753906 280.496094 502.753906 280.496094 503.609375 280.78125 Z M 556.777344 304.363281 L 598.226562 312.941406 C 600.371094 313.367188 600.511719 313.082031 598.511719 312.082031 C 584.363281 304.792969 569.785156 303.222656 553.347656 301.21875 C 546.058594 300.363281 539.054688 298.648438 532.339844 295.933594 C 530.335938 295.074219 530.335938 294.929688 532.480469 295.503906 C 538.484375 296.933594 544.34375 298.363281 550.488281 298.789062 C 574.5 300.792969 590.652344 302.648438 610.660156 306.9375 C 610.804688 306.9375 610.945312 306.9375 610.945312 306.792969 C 610.945312 306.652344 610.945312 306.507812 610.804688 306.507812 C 589.363281 297.363281 565.640625 296.789062 542.628906 295.644531 C 539.054688 295.503906 534.480469 294.929688 531.050781 293.789062 C 515.757812 288.785156 500.179688 284.355469 484.460938 280.78125 C 482.886719 280.496094 482.886719 280.496094 484.460938 280.925781 C 490.890625 282.925781 497.75 284.355469 503.609375 286.929688 C 511.1875 290.214844 518.761719 293.789062 526.191406 297.648438 C 527.191406 298.074219 528.335938 298.503906 529.910156 298.789062 C 533.054688 299.363281 537.054688 301.648438 538.914062 302.363281 C 546.203125 304.792969 553.347656 306.9375 560.636719 310.082031 C 572.644531 315.226562 584.792969 319.941406 597.226562 324.089844 C 597.367188 324.089844 597.511719 324.089844 597.511719 323.945312 C 597.511719 323.800781 597.511719 323.660156 597.367188 323.660156 C 584.363281 316.085938 570.785156 309.796875 556.636719 304.792969 C 556.492188 304.792969 556.492188 304.648438 556.636719 304.507812 C 556.492188 304.363281 556.636719 304.363281 556.777344 304.363281 Z M 215.621094 282.925781 C 215.476562 282.925781 215.335938 282.925781 215.335938 282.925781 C 214.335938 283.070312 214.335938 283.210938 215.476562 283.210938 C 227.625 283.496094 239.632812 284.5 251.636719 285.925781 C 272.359375 288.5 291.65625 289.644531 311.664062 291.214844 C 323.957031 292.214844 335.390625 290.785156 347.394531 289.5 C 351.113281 289.070312 355.257812 289.644531 359.117188 289.644531 C 360.972656 289.644531 360.972656 289.5 359.117188 289.214844 C 345.394531 287.355469 332.246094 290.214844 318.382812 287.785156 C 289.941406 282.78125 261.640625 280.496094 233.628906 280.925781 C 228.199219 281.066406 222.480469 281.640625 216.050781 282.925781 C 215.90625 283.070312 215.761719 283.070312 215.621094 282.925781 Z M 480.171875 287.214844 C 498.75 293.214844 515.757812 301.792969 531.050781 313.226562 C 544.34375 323.085938 556.777344 331.089844 569.210938 340.953125 C 570.070312 341.667969 570.214844 341.523438 569.640625 340.667969 C 566.355469 335.949219 561.636719 331.089844 555.492188 326.230469 C 536.054688 310.9375 521.90625 299.21875 500.464844 292.789062 C 494.890625 291.074219 487.175781 288.070312 480.171875 286.929688 C 480.027344 286.929688 480.027344 286.929688 480.027344 287.070312 C 480.027344 287.070312 480.027344 287.214844 480.171875 287.214844 Z M 263.785156 305.9375 C 279.792969 307.082031 290.371094 307.507812 295.371094 307.082031 C 307.949219 305.9375 319.527344 300.363281 331.246094 296.074219 C 337.675781 293.644531 344.679688 293.359375 351.539062 291.789062 C 351.828125 291.789062 351.96875 291.5 351.96875 291.214844 C 351.96875 290.929688 351.683594 290.785156 351.539062 290.785156 C 347.679688 290.644531 343.964844 292.214844 341.105469 292.789062 C 329.960938 294.644531 322.097656 296.21875 317.523438 297.503906 C 300.230469 302.078125 288.941406 301.792969 266.644531 301.933594 C 253.066406 302.078125 240.917969 304.078125 230.054688 307.9375 C 228.484375 308.507812 228.484375 308.652344 230.199219 308.367188 C 243.777344 306.078125 254.925781 305.363281 263.785156 305.9375 Z M 478.457031 292.644531 C 489.746094 298.503906 500.464844 304.507812 510.613281 310.652344 C 516.046875 313.941406 527.191406 322.085938 544.199219 335.378906 C 548.917969 339.09375 553.632812 343.953125 558.492188 348.242188 C 559.636719 349.242188 559.78125 349.097656 558.921875 347.8125 C 548.058594 331.089844 530.195312 318.65625 512.902344 306.9375 C 503.46875 300.503906 493.464844 296.074219 482.886719 293.503906 C 481.601562 293.214844 479.886719 291.929688 478.597656 291.789062 C 478.3125 291.789062 478.171875 291.929688 478.171875 292.214844 C 478.3125 292.359375 478.3125 292.5 478.457031 292.644531 Z M 466.878906 292.359375 C 469.308594 293.359375 471.738281 294.21875 473.882812 295.644531 C 481.886719 301.21875 490.03125 306.652344 498.324219 311.941406 C 515.042969 322.515625 531.625 336.378906 542.058594 352.816406 C 542.628906 353.671875 542.773438 353.53125 542.484375 352.671875 C 535.769531 325.515625 491.175781 301.507812 467.308594 292.074219 C 466.878906 291.929688 466.59375 291.929688 466.59375 292.214844 C 466.59375 292.214844 466.738281 292.359375 466.878906 292.359375 Z M 220.765625 298.074219 C 246.777344 296.074219 272.789062 298.074219 296.515625 297.648438 C 299.230469 297.648438 303.804688 296.789062 309.949219 295.359375 C 315.09375 294.21875 320.382812 294.074219 325.671875 293.503906 C 329.101562 293.214844 329.101562 293.074219 325.671875 293.074219 C 299.945312 293.214844 274.21875 293.074219 248.492188 292.644531 C 239.773438 292.5 230.484375 294.21875 220.621094 297.648438 C 219.910156 298.074219 219.910156 298.21875 220.765625 298.074219 Z M 294.800781 313.941406 C 284.652344 315.226562 277.363281 316.65625 272.933594 318.085938 C 265.5 320.65625 258.785156 324.515625 252.921875 329.804688 C 252.78125 329.949219 252.78125 330.089844 252.921875 330.234375 C 253.066406 330.375 253.210938 330.375 253.351562 330.234375 C 263.355469 324.800781 272.933594 321.660156 285.082031 319.65625 C 292.941406 318.371094 297.945312 317.511719 299.945312 317.085938 C 312.664062 314.082031 324.671875 309.222656 335.960938 302.507812 C 336.105469 302.363281 336.246094 302.222656 336.246094 302.078125 C 336.246094 301.648438 336.390625 301.507812 336.820312 301.363281 C 346.394531 297.789062 355.542969 294.359375 365.691406 294.503906 C 365.832031 294.503906 365.976562 294.359375 365.976562 294.21875 C 365.976562 294.074219 365.832031 293.929688 365.832031 293.929688 C 362.117188 292.644531 356.6875 293.503906 353.683594 293.644531 C 333.960938 294.503906 318.238281 308.367188 298.945312 311.367188 C 291.511719 312.511719 281.078125 311.511719 272.074219 311.511719 C 261.5 311.367188 252.066406 313.796875 243.203125 319.371094 C 243.0625 319.515625 242.917969 319.800781 243.0625 319.941406 C 243.203125 320.085938 243.347656 320.230469 243.632812 320.085938 C 260.210938 314.371094 277.648438 313.082031 294.941406 313.226562 C 296.945312 313.511719 296.945312 313.65625 294.800781 313.941406 Z M 472.3125 299.363281 C 477.597656 303.792969 490.605469 315.082031 511.328125 332.949219 C 518.332031 338.953125 524.191406 345.527344 529.050781 352.671875 C 529.195312 352.957031 529.480469 352.957031 529.765625 352.816406 C 529.910156 352.671875 530.050781 352.386719 529.910156 352.101562 C 525.765625 342.523438 520.191406 334.664062 513.042969 328.660156 C 497.035156 315.371094 483.457031 306.9375 468.738281 295.789062 C 468.308594 295.503906 468.308594 295.503906 468.59375 295.933594 C 469.453125 297.074219 470.738281 298.074219 472.3125 299.363281 Z M 304.804688 320.945312 C 299.945312 322.660156 295.230469 324.660156 290.65625 327.230469 C 285.796875 329.949219 281.792969 333.808594 278.792969 338.523438 C 278.648438 338.667969 278.792969 338.953125 278.9375 338.953125 C 279.078125 339.09375 279.222656 339.09375 279.363281 338.953125 C 293.085938 328.375 309.808594 324.375 326.242188 315.226562 C 338.25 308.507812 350.539062 302.507812 363.402344 297.359375 C 363.402344 297.359375 363.976562 296.789062 363.976562 296.789062 C 364.117188 296.359375 363.976562 296.21875 363.546875 296.503906 C 355.257812 300.21875 345.539062 301.792969 338.25 305.652344 C 329.671875 310.082031 322.242188 313.511719 315.808594 315.941406 C 297.515625 322.800781 282.078125 319.230469 268.074219 335.234375 C 267.5 335.949219 267.5 335.949219 268.359375 335.523438 C 280.222656 327.804688 291.511719 324.089844 304.804688 320.800781 C 307.234375 320.085938 307.234375 320.085938 304.804688 320.945312 Z M 529.910156 300.503906 C 539.628906 306.222656 549.347656 313.941406 557.921875 318.941406 C 567.210938 324.375 576.644531 329.234375 586.363281 333.808594 C 587.078125 334.09375 587.078125 334.09375 586.648438 333.519531 C 584.933594 331.949219 583.21875 330.519531 581.359375 329.234375 C 578.503906 327.375 577.074219 326.519531 577.074219 326.375 C 562.351562 315.796875 546.488281 306.9375 529.765625 299.789062 C 529.621094 299.789062 529.480469 299.789062 529.480469 299.933594 C 529.480469 299.933594 529.480469 300.078125 529.480469 300.078125 C 529.480469 300.503906 529.621094 300.503906 529.910156 300.503906 Z M 496.464844 333.234375 C 504.039062 340.238281 510.183594 348.097656 514.757812 357.101562 C 514.902344 357.246094 515.042969 357.390625 515.332031 357.246094 C 515.472656 357.101562 515.617188 356.960938 515.472656 356.816406 C 513.1875 343.382812 503.609375 333.09375 493.890625 324.375 C 484.886719 316.226562 475.742188 308.367188 466.308594 301.078125 C 466.164062 300.933594 466.023438 300.933594 465.878906 301.078125 C 465.734375 301.21875 465.734375 301.363281 465.878906 301.507812 C 475.453125 312.652344 485.601562 323.230469 496.464844 333.234375 Z M 357.972656 308.652344 C 355.683594 310.367188 353.113281 311.941406 350.539062 313.65625 C 344.25 317.65625 335.820312 321.371094 330.246094 325.515625 C 322.382812 331.519531 317.382812 339.953125 315.382812 350.527344 C 315.238281 350.957031 315.382812 350.957031 315.667969 350.671875 C 326.386719 335.234375 339.535156 322.371094 355.113281 312.082031 C 360.832031 308.222656 367.261719 305.507812 373.550781 302.792969 C 373.695312 302.792969 373.835938 302.507812 373.835938 302.363281 C 373.835938 302.222656 373.550781 302.078125 373.40625 302.078125 C 365.117188 304.363281 357.113281 306.792969 349.398438 309.511719 C 333.53125 315.226562 307.378906 330.375 302.089844 347.671875 C 301.945312 348.242188 302.089844 348.386719 302.519531 347.957031 C 317.667969 331.234375 337.105469 319.800781 357.6875 308.222656 C 357.828125 308.082031 358.113281 308.222656 358.113281 308.367188 C 358.113281 308.367188 358.113281 308.507812 357.972656 308.652344 Z M 377.125 307.082031 C 356.113281 316.226562 330.960938 325.945312 329.101562 352.816406 C 329.101562 352.957031 329.246094 353.101562 329.246094 353.101562 C 329.386719 353.101562 329.386719 353.101562 329.386719 352.957031 C 337.105469 336.09375 349.253906 323.230469 365.546875 314.371094 C 370.691406 311.652344 374.695312 309.367188 377.410156 307.652344 C 380.269531 305.9375 380.125 305.792969 377.125 307.082031 Z M 327.101562 318.941406 C 315.238281 324.375 298.375 329.949219 290.796875 342.382812 C 290.226562 343.382812 290.371094 343.527344 291.226562 342.8125 C 299.800781 336.238281 308.804688 330.375 318.238281 325.375 C 321.242188 323.800781 324.097656 321.371094 327.386719 319.65625 C 327.386719 319.65625 327.53125 319.515625 327.53125 319.515625 C 327.53125 319.371094 327.53125 319.371094 327.53125 319.230469 C 327.386719 318.941406 327.242188 318.941406 327.101562 318.941406 Z M 327.101562 318.941406 " fill-opacity="1" fill-rule="nonzero"/><path fill="#eba118" d="M 371.691406 118.421875 C 376.410156 112.5625 387.699219 109.847656 394.847656 108.558594 C 398.417969 107.988281 407.710938 107.988281 406.566406 113.992188 C 405.136719 121.566406 383.125 125.996094 377.410156 126.425781 C 373.550781 126.710938 367.832031 123.136719 371.691406 118.421875 Z M 371.691406 118.421875 " fill-opacity="1" fill-rule="nonzero"/><path fill="#eba118" d="M 546.058594 208.605469 C 551.347656 206.460938 559.921875 209.035156 565.066406 211.035156 C 567.640625 212.035156 573.785156 215.609375 570.785156 219.183594 C 566.925781 223.613281 550.777344 218.183594 546.773438 216.179688 C 544.199219 214.75 541.769531 210.320312 546.058594 208.605469 Z M 546.058594 208.605469 " fill-opacity="1" fill-rule="nonzero"/><path fill="#eba118" d="M 436.867188 146.148438 C 429.289062 144.578125 424.003906 136.429688 432.148438 130.714844 C 441.152344 124.425781 460.304688 124.851562 470.59375 127.28125 C 480.457031 129.570312 483.886719 140.71875 472.3125 144.289062 C 460.449219 148.007812 448.585938 148.578125 436.867188 146.148438 Z M 436.867188 146.148438 " fill-opacity="1" fill-rule="nonzero"/><path fill="#eba118" d="M 315.238281 181.59375 C 310.09375 182.308594 299.660156 179.019531 304.949219 171.730469 C 310.664062 163.871094 333.960938 158.296875 342.820312 160.582031 C 347.824219 161.871094 348.96875 166.871094 345.394531 170.445312 C 339.105469 176.734375 323.8125 180.449219 315.238281 181.59375 Z M 315.238281 181.59375 " fill-opacity="1" fill-rule="nonzero"/><path fill="#eba118" d="M 408.425781 199.171875 C 399.847656 199.746094 383.269531 193.171875 392.703125 181.878906 C 402.851562 169.589844 441.582031 163.300781 455.875 168.015625 C 463.734375 170.730469 465.308594 179.019531 459.019531 184.453125 C 447.871094 193.886719 422.574219 198.316406 408.425781 199.171875 Z M 408.425781 199.171875 " fill-opacity="1" fill-rule="nonzero"/><path fill="#eba118" d="M 525.453125 171.578125 C 526.261719 171.75 527.054688 171.960938 527.828125 172.203125 C 528.605469 172.445312 529.351562 172.722656 530.066406 173.027344 C 530.78125 173.332031 531.453125 173.664062 532.078125 174.023438 C 532.703125 174.378906 533.273438 174.753906 533.785156 175.148438 C 534.300781 175.542969 534.746094 175.949219 535.128906 176.363281 C 535.507812 176.78125 535.816406 177.199219 536.050781 177.621094 C 536.28125 178.042969 536.4375 178.460938 536.515625 178.871094 C 536.59375 179.28125 536.589844 179.679688 536.507812 180.066406 C 536.425781 180.453125 536.265625 180.816406 536.027344 181.160156 C 535.789062 181.507812 535.480469 181.824219 535.09375 182.113281 C 534.707031 182.40625 534.257812 182.664062 533.742188 182.886719 C 533.222656 183.113281 532.652344 183.300781 532.023438 183.453125 C 531.394531 183.605469 530.71875 183.714844 530.003906 183.785156 C 529.285156 183.859375 528.539062 183.886719 527.761719 183.875 C 526.984375 183.867188 526.191406 183.8125 525.382812 183.71875 C 524.574219 183.628906 523.765625 183.496094 522.957031 183.324219 C 522.148438 183.152344 521.359375 182.945312 520.582031 182.699219 C 519.804688 182.457031 519.058594 182.179688 518.34375 181.875 C 517.628906 181.570312 516.960938 181.238281 516.332031 180.878906 C 515.707031 180.523438 515.136719 180.148438 514.625 179.753906 C 514.109375 179.359375 513.664062 178.957031 513.28125 178.539062 C 512.902344 178.125 512.59375 177.703125 512.363281 177.28125 C 512.128906 176.859375 511.972656 176.445312 511.894531 176.03125 C 511.820312 175.621094 511.820312 175.222656 511.902344 174.835938 C 511.984375 174.449219 512.144531 174.085938 512.382812 173.742188 C 512.621094 173.398438 512.933594 173.078125 513.316406 172.789062 C 513.703125 172.5 514.152344 172.242188 514.667969 172.015625 C 515.1875 171.789062 515.757812 171.601562 516.390625 171.449219 C 517.019531 171.300781 517.691406 171.1875 518.410156 171.117188 C 519.125 171.046875 519.871094 171.015625 520.652344 171.027344 C 521.429688 171.039062 522.222656 171.089844 523.03125 171.183594 C 523.835938 171.277344 524.644531 171.410156 525.453125 171.578125 Z M 525.453125 171.578125 " fill-opacity="1" fill-rule="nonzero"/><path fill="#eba118" d="M 281.367188 225.472656 C 271.359375 225.183594 270.503906 216.894531 278.363281 212.320312 C 284.9375 208.464844 315.238281 196.601562 317.953125 207.320312 C 320.8125 218.46875 288.367188 225.757812 281.367188 225.472656 Z M 281.367188 225.472656 " fill-opacity="1" fill-rule="nonzero"/><g clip-path="url(#77344303c9)"><path fill="#eba118" d="M 396.5625 297.363281 C 396.703125 297.648438 396.988281 297.789062 397.132812 297.648438 C 397.277344 297.648438 397.417969 297.363281 397.417969 297.21875 C 397.417969 294.929688 398.132812 292.789062 399.277344 290.929688 C 399.5625 290.644531 399.992188 290.5 400.277344 290.785156 C 400.421875 290.929688 400.5625 291.074219 400.5625 291.359375 L 400.992188 300.792969 C 400.992188 301.078125 401.136719 301.21875 401.421875 301.21875 C 401.5625 301.21875 401.707031 301.078125 401.847656 300.933594 L 404.277344 290.785156 C 404.421875 290.359375 404.566406 290.070312 404.992188 290.070312 L 406.851562 289.5 C 407.28125 289.359375 407.566406 289.5 407.566406 289.929688 C 407.710938 293.789062 408.136719 297.648438 408.996094 301.507812 C 409.28125 302.933594 409.566406 302.933594 409.710938 301.507812 L 411.425781 289.929688 C 411.425781 289.5 411.710938 289.359375 412.140625 289.214844 L 415.714844 288.785156 C 416 288.785156 416.140625 288.929688 416.285156 289.214844 C 416.425781 293.503906 417.140625 297.789062 418.285156 301.933594 C 418.714844 303.363281 419 303.363281 419.144531 301.933594 L 420.574219 289.785156 C 420.574219 289.5 420.714844 289.214844 421.144531 289.070312 C 422.574219 288.5 423.429688 288.785156 423.714844 289.929688 C 424.574219 293.789062 425.574219 297.363281 427.003906 300.648438 C 427.148438 300.933594 427.433594 301.078125 427.71875 300.933594 C 427.863281 300.933594 428.003906 300.648438 428.003906 300.503906 L 429.578125 290.5 C 429.71875 289.929688 430.003906 289.644531 430.578125 289.644531 L 432.863281 289.644531 C 433.433594 289.644531 433.722656 289.929688 433.722656 290.359375 C 434.148438 293.789062 434.148438 298.503906 435.863281 301.507812 C 436.007812 301.792969 436.4375 301.933594 436.722656 301.792969 C 436.867188 301.648438 437.007812 301.507812 437.007812 301.21875 L 437.722656 290.929688 C 437.722656 290.644531 437.867188 290.5 438.292969 290.644531 C 442.011719 292.359375 443.867188 294.789062 444.011719 299.21875 C 444.726562 323.515625 446.15625 347.671875 448.300781 371.824219 C 452.445312 418.132812 448.011719 465.296875 443.867188 511.601562 C 440.722656 548.335938 438.152344 581.636719 439.582031 617.367188 C 440.867188 652.667969 452.160156 704.121094 471.882812 734.132812 C 472.167969 734.5625 472.3125 734.992188 472.167969 735.421875 L 470.308594 749.714844 C 470.167969 750.429688 469.882812 750.570312 469.308594 750.285156 C 464.59375 747.570312 454.730469 727.273438 450.585938 722.414062 C 450.015625 721.699219 448.871094 721.699219 448.015625 722.414062 C 447.871094 722.558594 447.726562 724.988281 447.871094 725.417969 C 450.871094 734.132812 455.304688 742.136719 461.164062 749.285156 C 461.449219 749.714844 461.449219 749.855469 460.875 749.855469 L 372.550781 749.855469 C 372.121094 749.855469 371.835938 749.714844 371.691406 749.425781 C 358.828125 731.417969 353.96875 711.265625 353.542969 689.113281 C 353.113281 662.386719 356.6875 635.660156 361.546875 609.363281 C 374.695312 538.472656 390.414062 468.296875 391.84375 395.835938 C 392.273438 374.96875 391.128906 353.53125 390.414062 332.519531 C 389.988281 317.511719 390.414062 304.9375 391.84375 294.929688 C 392.128906 293.503906 393.132812 292.5 394.988281 292.214844 C 395.417969 292.214844 395.5625 292.359375 395.703125 292.644531 Z M 411.710938 445.285156 C 410.28125 462.867188 406.566406 480.304688 403.136719 497.738281 C 403.136719 497.882812 403.277344 498.167969 403.421875 498.167969 C 403.566406 498.167969 403.707031 498.167969 403.707031 498.027344 L 404.421875 497.3125 C 404.566406 497.167969 404.707031 496.882812 404.851562 496.597656 C 414.570312 472.300781 418.144531 446.859375 415.714844 419.988281 C 415.140625 412.984375 413.996094 406.839844 412.425781 401.550781 C 412.140625 400.550781 411.996094 400.550781 411.996094 401.550781 C 412.425781 416.128906 412.855469 430.851562 411.710938 445.285156 Z M 380.410156 727.988281 C 382.125 731.703125 388.988281 743.710938 394.132812 742.136719 C 395.132812 741.851562 395.703125 740.851562 395.417969 739.851562 C 395.417969 739.851562 395.417969 739.851562 395.417969 739.707031 C 379.125 692.542969 376.410156 641.519531 385.269531 592.640625 C 387.269531 581.492188 390.558594 570.058594 393.988281 558.910156 C 394.132812 558.625 394.132812 558.339844 393.988281 558.054688 C 393.417969 556.339844 392.703125 556.339844 391.84375 557.910156 C 389.84375 561.484375 388.273438 565.199219 386.84375 569.058594 C 375.695312 599.929688 372.265625 636.945312 371.265625 666.816406 C 370.40625 686.828125 371.980469 709.410156 380.410156 727.988281 Z M 397.417969 626.371094 C 397.992188 626.941406 398.847656 627.085938 399.417969 626.65625 C 399.5625 626.511719 399.707031 626.371094 399.847656 626.085938 C 400.421875 624.65625 400.707031 623.511719 400.5625 622.367188 C 397.5625 603.074219 398.992188 584.066406 404.992188 565.484375 C 405.136719 564.914062 404.851562 564.34375 404.277344 564.199219 C 404.136719 564.199219 404.136719 564.199219 403.992188 564.199219 C 400.707031 563.914062 396.277344 581.921875 395.703125 584.636719 C 393.703125 594.5 390.558594 617.796875 397.417969 626.371094 Z M 417.570312 571.203125 C 417 570.628906 416.140625 570.773438 415.714844 571.203125 C 415.570312 571.34375 415.570312 571.488281 415.425781 571.632812 C 412.855469 577.632812 406.996094 599.070312 412.28125 603.644531 C 412.710938 603.929688 412.996094 603.929688 413.425781 603.644531 C 419.570312 599.070312 422 575.488281 417.570312 571.203125 Z M 417.570312 571.203125 " fill-opacity="1" fill-rule="nonzero"/></g><path fill="#eba118" d="M 241.203125 473.441406 C 242.917969 471.726562 248.0625 464.722656 251.207031 464.582031 C 251.78125 464.582031 251.921875 464.722656 251.496094 465.152344 C 248.921875 467.296875 247.347656 470.011719 246.777344 473.300781 C 246.636719 474.15625 246.777344 474.300781 247.492188 473.585938 L 254.925781 465.296875 C 255.210938 465.011719 255.640625 465.011719 255.925781 465.152344 C 256.210938 465.4375 256.210938 465.726562 256.066406 466.011719 L 251.78125 474.871094 C 251.636719 475.15625 251.78125 475.585938 252.066406 475.585938 C 252.351562 475.730469 252.636719 475.585938 252.78125 475.445312 L 258.355469 466.867188 C 258.640625 466.441406 258.925781 466.441406 259.210938 466.726562 C 259.785156 467.296875 255.351562 476.730469 255.210938 477.160156 C 254.925781 477.875 255.210938 478.160156 255.925781 478.015625 C 257.640625 477.585938 259.785156 473.15625 260.785156 471.585938 C 261.214844 470.871094 261.355469 470.871094 261.355469 471.726562 L 261.070312 482.160156 C 261.070312 482.589844 260.925781 482.734375 260.5 482.734375 C 253.925781 482.589844 205.1875 481.589844 212.90625 467.582031 C 214.476562 464.867188 220.050781 462.152344 223.625 461.4375 C 255.925781 454.433594 290.082031 454.003906 323.242188 457.433594 C 329.53125 458.007812 343.394531 459.4375 343.964844 467.152344 C 343.964844 467.726562 344.25 467.867188 344.679688 467.441406 C 348.394531 464.4375 347.824219 456.71875 346.109375 453.289062 C 340.820312 443.285156 328.816406 438.425781 321.527344 430.28125 C 315.238281 423.277344 311.949219 413.699219 306.234375 406.410156 C 290.796875 386.832031 260.925781 385.546875 244.492188 404.125 C 236.628906 412.984375 234.914062 425.132812 226.769531 433.851562 C 218.765625 442.429688 200.183594 452.003906 206.332031 466.582031 C 207.902344 470.296875 211.90625 473.441406 214.90625 476.300781 C 215.050781 476.445312 215.050781 476.585938 214.90625 476.730469 C 214.761719 476.871094 214.621094 476.871094 214.621094 476.871094 C 197.613281 471.726562 197.183594 455.433594 208.1875 443.859375 C 210.476562 441.429688 214.761719 437.570312 221.050781 432.421875 C 227.625 426.992188 229.628906 419.988281 233.914062 410.554688 C 239.773438 397.695312 251.921875 389.261719 266.074219 386.6875 C 283.796875 383.542969 298.515625 388.976562 310.234375 402.980469 C 314.808594 408.554688 318.667969 416.988281 322.382812 422.703125 C 329.386719 433.425781 342.394531 437.28125 348.96875 448.289062 C 367.121094 479.160156 307.804688 481.730469 293.085938 482.304688 C 292.226562 482.304688 291.371094 481.730469 291.226562 480.875 C 290.941406 479.875 290.941406 478.875 290.941406 477.875 C 291.085938 476.730469 291.371094 476.585938 291.941406 477.585938 L 293.085938 479.589844 C 293.226562 479.875 293.515625 480.015625 293.800781 479.875 C 294.941406 479.300781 291.085938 475.15625 291.511719 473.15625 C 291.65625 472.585938 291.941406 472.441406 292.226562 473.015625 L 295.515625 478.160156 C 295.65625 478.445312 295.800781 478.445312 295.945312 478.160156 C 296.371094 476.871094 293.371094 468.011719 292.800781 466.296875 C 292.65625 466.011719 292.941406 465.726562 293.226562 465.582031 C 293.515625 465.4375 293.800781 465.582031 293.941406 465.867188 L 300.515625 475.015625 C 300.660156 475.300781 301.089844 475.300781 301.230469 475.15625 C 301.375 475.015625 301.515625 474.871094 301.515625 474.730469 C 301.375 471.441406 298.515625 468.726562 297.085938 465.867188 C 296.800781 465.4375 296.945312 465.152344 297.515625 465.296875 C 297.660156 465.296875 297.800781 465.296875 297.945312 465.296875 C 298.085938 465.296875 298.230469 465.296875 298.375 465.4375 L 302.375 470.441406 C 302.660156 470.726562 302.945312 471.011719 303.375 471.15625 C 304.660156 471.585938 305.519531 472.441406 305.949219 473.585938 C 306.664062 475.15625 306.949219 475.15625 306.949219 473.441406 C 306.949219 471.441406 305.949219 470.011719 303.945312 469.441406 C 303.519531 469.296875 303.234375 469.011719 303.089844 468.726562 L 299.515625 463.296875 C 299.230469 462.722656 299.375 462.582031 299.945312 462.582031 L 301.660156 462.722656 C 302.089844 462.722656 302.519531 462.867188 302.804688 463.296875 L 305.089844 465.867188 C 305.375 466.152344 305.664062 466.582031 305.664062 467.011719 C 305.804688 468.011719 306.519531 468.726562 307.378906 469.296875 C 307.804688 469.582031 307.949219 469.441406 307.804688 468.867188 L 306.804688 466.011719 C 306.664062 465.726562 306.804688 465.582031 307.089844 465.582031 C 307.234375 465.582031 307.378906 465.582031 307.378906 465.582031 C 307.519531 465.582031 307.664062 465.582031 307.664062 465.726562 L 311.949219 471.441406 C 312.378906 472.15625 312.664062 472.011719 312.808594 471.15625 C 313.09375 469.296875 308.804688 464.722656 307.519531 463.296875 C 307.234375 463.007812 307.234375 462.722656 307.664062 462.582031 C 309.234375 462.292969 310.378906 462.722656 311.09375 463.867188 C 311.234375 464.152344 311.523438 464.4375 311.949219 464.722656 C 313.664062 465.582031 319.097656 470.441406 319.953125 470.441406 C 320.242188 470.441406 320.382812 470.296875 320.382812 470.011719 C 320.382812 469.871094 320.382812 469.871094 320.242188 469.726562 L 315.667969 463.152344 C 315.09375 462.292969 315.238281 462.152344 316.238281 462.582031 C 319.097656 463.867188 319.667969 466.726562 321.957031 468.726562 C 322.671875 469.441406 322.8125 469.296875 322.242188 468.441406 L 319.382812 463.722656 C 319.097656 463.152344 319.238281 462.867188 319.953125 462.867188 L 320.8125 462.867188 C 321.382812 462.867188 321.527344 463.152344 321.242188 463.582031 C 320.667969 465.011719 323.957031 466.582031 324.8125 467.582031 C 325.101562 467.867188 325.101562 467.726562 325.101562 467.441406 C 324.8125 465.726562 323.8125 464.582031 322.382812 463.867188 C 320.953125 463.296875 321.097656 463.007812 322.527344 463.007812 C 326.527344 463.007812 330.101562 464.296875 333.246094 466.726562 C 333.675781 467.011719 333.816406 467.011719 333.675781 466.4375 C 332.960938 461.4375 320.097656 461.292969 316.09375 461.152344 C 295.800781 460.152344 276.21875 460.152344 257.066406 461.292969 C 251.351562 461.578125 227.339844 463.4375 223.910156 468.296875 C 223.480469 468.867188 223.625 469.15625 224.339844 469.15625 C 225.054688 469.15625 225.625 468.867188 226.195312 468.296875 C 226.484375 468.011719 226.769531 467.726562 227.199219 467.582031 C 229.914062 466.582031 232.628906 466.011719 235.34375 465.867188 C 239.203125 465.726562 239.203125 466.152344 235.488281 466.726562 C 233.628906 467.011719 232.628906 468.15625 232.484375 470.15625 C 232.484375 470.871094 232.628906 471.011719 233.199219 470.441406 L 237.773438 465.867188 C 238.058594 465.582031 238.34375 465.4375 238.773438 465.296875 L 240.203125 464.867188 C 240.773438 464.722656 240.917969 464.867188 240.488281 465.296875 L 236.488281 471.296875 C 235.773438 472.300781 235.914062 472.441406 236.917969 471.726562 C 239.203125 470.011719 241.0625 468.011719 242.488281 465.582031 C 242.632812 465.296875 242.917969 465.011719 243.347656 465.011719 L 247.636719 464.007812 C 248.351562 463.867188 248.492188 464.007812 247.777344 464.4375 C 244.777344 466.582031 242.632812 469.441406 241.347656 472.871094 C 240.203125 474.15625 240.488281 474.300781 241.203125 473.441406 Z M 328.386719 468.011719 L 325.671875 465.011719 C 325.101562 464.296875 324.957031 464.4375 325.242188 465.296875 C 325.957031 467.011719 326.816406 468.011719 327.957031 468.441406 C 328.816406 468.871094 328.957031 468.726562 328.386719 468.011719 Z M 228.914062 468.441406 C 228.199219 468.726562 227.769531 469.011719 227.339844 469.441406 C 227.054688 469.726562 227.054688 469.871094 227.484375 469.871094 C 228.484375 469.726562 229.339844 469.15625 229.769531 468.15625 C 230.054688 467.726562 229.914062 467.582031 229.339844 467.726562 C 229.054688 467.867188 228.914062 468.15625 228.914062 468.441406 Z M 228.914062 468.441406 " fill-opacity="1" fill-rule="nonzero"/><path fill="#eba118" d="M 501.894531 532.613281 C 503.46875 531.039062 507.183594 524.324219 509.183594 524.753906 C 509.613281 524.753906 509.613281 525.039062 509.46875 525.324219 L 506.183594 531.898438 C 506.039062 532.183594 506.183594 532.46875 506.46875 532.613281 C 506.613281 532.613281 506.753906 532.613281 506.898438 532.613281 C 508.46875 531.898438 511.613281 527.039062 512.902344 525.609375 C 513.042969 525.464844 513.1875 525.324219 513.472656 525.464844 C 513.617188 525.464844 513.757812 525.609375 513.757812 525.609375 C 513.902344 525.609375 513.902344 525.753906 513.902344 525.894531 C 512.757812 527.609375 511.902344 529.613281 511.472656 531.613281 C 511.1875 532.753906 511.472656 532.753906 512.1875 531.898438 C 513.757812 530.039062 515.1875 527.894531 516.332031 525.753906 C 516.617188 525.179688 516.902344 525.179688 517.046875 525.753906 C 517.332031 526.609375 515.1875 530.183594 515.1875 532.042969 C 515.1875 532.328125 515.332031 532.613281 515.617188 532.613281 L 517.046875 532.898438 C 517.1875 532.898438 517.332031 532.898438 517.332031 532.753906 L 518.476562 525.894531 C 518.476562 525.753906 518.761719 525.609375 518.902344 525.609375 C 519.046875 525.609375 519.191406 525.753906 519.191406 525.894531 L 519.476562 536.757812 C 519.476562 537.1875 519.332031 537.328125 518.902344 537.472656 C 504.898438 538.902344 486.601562 540.332031 474.167969 534.183594 C 473.167969 533.757812 472.882812 532.613281 473.3125 531.613281 C 476.3125 525.894531 479.886719 523.894531 486.601562 522.324219 C 514.472656 516.175781 537.339844 512.316406 564.351562 511.03125 C 568.210938 510.886719 590.9375 510.886719 589.507812 517.890625 C 589.507812 518.179688 589.507812 518.464844 589.792969 518.605469 C 590.078125 518.75 590.367188 518.75 590.652344 518.320312 C 602.085938 504.742188 580.933594 494.308594 572.355469 488.734375 C 566.355469 484.734375 561.351562 474.585938 556.636719 468.296875 C 538.628906 444.574219 504.753906 450.71875 494.605469 478.015625 C 491.320312 486.878906 489.03125 494.453125 481.886719 501.3125 C 477.742188 505.316406 472.597656 509.316406 469.738281 513.746094 C 463.878906 523.035156 466.164062 530.898438 476.597656 537.042969 C 477.171875 537.328125 477.027344 537.472656 476.457031 537.328125 C 462.019531 534.757812 458.160156 520.320312 467.453125 509.601562 C 470.882812 505.601562 475.027344 501.457031 480.027344 497.023438 C 486.316406 491.449219 487.890625 481.445312 490.890625 474.441406 C 497.179688 459.722656 509.757812 450.71875 525.621094 449.433594 C 542.628906 448.003906 554.0625 456.292969 563.210938 470.011719 C 566.78125 475.445312 570.214844 481.875 575.785156 485.589844 C 581.648438 489.59375 589.078125 493.453125 593.507812 499.167969 C 613.375 524.609375 560.496094 532.183594 547.488281 533.898438 C 547.058594 533.898438 546.917969 533.757812 546.773438 533.46875 L 544.058594 523.75 C 544.058594 523.609375 544.058594 523.324219 544.34375 523.179688 C 544.488281 523.179688 544.628906 523.179688 544.773438 523.324219 L 549.058594 528.183594 C 549.347656 528.46875 549.632812 528.46875 549.917969 528.183594 C 550.0625 528.039062 550.203125 527.753906 550.0625 527.609375 L 547.773438 520.75 C 547.632812 520.464844 547.773438 520.320312 548.203125 520.320312 C 549.347656 520.464844 549.917969 524.324219 551.632812 525.609375 C 552.0625 525.894531 552.203125 525.894531 552.0625 525.324219 C 551.917969 524.753906 551.777344 524.324219 551.632812 523.75 C 551.347656 521.75 551.632812 521.75 552.492188 523.464844 C 552.917969 524.464844 553.632812 525.324219 554.632812 525.894531 C 554.777344 526.039062 555.0625 525.894531 555.207031 525.753906 C 555.347656 525.609375 555.347656 525.46875 555.207031 525.324219 L 551.777344 520.320312 C 551.632812 520.179688 551.632812 519.894531 551.917969 519.75 C 552.0625 519.605469 552.347656 519.605469 552.492188 519.75 L 557.492188 524.894531 C 557.636719 525.039062 557.777344 525.039062 557.921875 524.894531 C 558.492188 523.894531 553.917969 519.894531 554.492188 518.464844 C 554.632812 518.179688 554.632812 518.179688 554.921875 518.320312 L 561.636719 523.894531 C 562.496094 524.609375 562.636719 524.464844 562.210938 523.464844 C 561.207031 521.320312 557.777344 519.179688 557.351562 517.464844 C 557.207031 516.890625 557.351562 516.75 557.921875 517.035156 L 564.78125 522.179688 C 565.066406 522.464844 565.355469 522.324219 565.355469 522.035156 C 565.496094 521.609375 561.78125 518.179688 561.351562 517.75 C 561.066406 517.464844 561.207031 517.175781 561.496094 517.175781 C 562.636719 516.890625 566.210938 520.035156 567.355469 520.609375 C 567.925781 520.894531 568.070312 520.75 567.640625 520.320312 C 566.640625 519.179688 565.640625 518.320312 564.351562 517.605469 C 563.925781 517.464844 564.066406 517.320312 564.351562 517.175781 C 565.925781 516.75 569.5 519.464844 570.925781 520.320312 C 571.214844 520.464844 571.355469 520.464844 571.355469 520.035156 C 571.214844 519.035156 568.925781 517.75 568.210938 517.175781 C 567.640625 516.75 567.785156 516.605469 568.355469 516.460938 C 569.925781 516.320312 571.070312 516.75 571.929688 517.890625 C 572.070312 518.179688 572.355469 518.320312 572.644531 518.464844 L 575.785156 519.464844 C 576.644531 519.75 576.644531 519.605469 575.929688 519.179688 C 574.929688 518.605469 573.785156 518.179688 572.644531 518.035156 C 572.5 518.035156 572.214844 517.75 571.929688 517.320312 C 571.785156 517.175781 571.785156 517.035156 571.785156 516.890625 C 571.640625 516.320312 571.929688 516.035156 572.5 516.320312 L 577.503906 518.035156 C 577.789062 518.179688 577.929688 518.035156 577.929688 517.75 C 578.359375 516.175781 571.214844 515.175781 570.355469 515.175781 C 542.34375 515.75 515.472656 520.035156 488.175781 526.179688 C 486.175781 526.609375 484.316406 527.46875 482.457031 528.609375 C 482.03125 528.898438 482.03125 529.183594 482.316406 529.46875 L 482.601562 529.753906 C 482.742188 529.898438 483.03125 529.898438 483.171875 529.753906 C 485.316406 528.324219 487.601562 527.324219 490.175781 526.753906 C 490.320312 526.753906 490.460938 526.894531 490.605469 527.039062 C 490.605469 527.183594 490.605469 527.183594 490.460938 527.324219 L 488.03125 530.039062 C 487.746094 530.328125 487.746094 530.613281 488.03125 531.042969 C 489.320312 532.757812 491.320312 526.183594 493.75 526.609375 C 494.179688 526.609375 494.179688 526.894531 494.035156 527.183594 L 492.460938 530.753906 C 492.175781 531.46875 492.320312 531.613281 492.890625 531.042969 C 495.179688 529.039062 495.320312 525.46875 498.894531 525.46875 C 499.324219 525.46875 499.324219 525.609375 499.179688 525.894531 C 498.035156 527.609375 497.179688 529.46875 496.464844 531.328125 C 496.179688 532.183594 496.320312 532.328125 496.894531 531.613281 C 499.039062 529.46875 500.753906 524.753906 503.898438 524.753906 C 504.324219 524.753906 504.46875 524.894531 504.324219 525.324219 L 500.753906 532.042969 C 500.609375 532.183594 500.753906 532.46875 500.894531 532.46875 C 501.609375 532.753906 501.753906 532.753906 501.894531 532.613281 Z M 501.894531 532.613281 " fill-opacity="1" fill-rule="nonzero"/><path fill="#eba118" d="M 263.023438 407.960938 C 263.726562 407.964844 264.425781 408.011719 265.113281 408.089844 C 265.804688 408.171875 266.472656 408.289062 267.121094 408.441406 C 267.769531 408.59375 268.386719 408.78125 268.96875 409 C 269.554688 409.21875 270.09375 409.464844 270.589844 409.742188 C 271.082031 410.019531 271.523438 410.320312 271.914062 410.640625 C 272.300781 410.964844 272.628906 411.304688 272.894531 411.664062 C 273.160156 412.023438 273.363281 412.390625 273.496094 412.769531 C 273.628906 413.148438 273.695312 413.527344 273.691406 413.914062 C 273.6875 414.296875 273.617188 414.679688 273.476562 415.054688 C 273.335938 415.429688 273.128906 415.796875 272.855469 416.148438 C 272.582031 416.503906 272.25 416.835938 271.855469 417.152344 C 271.464844 417.46875 271.015625 417.761719 270.515625 418.03125 C 270.015625 418.296875 269.472656 418.535156 268.886719 418.746094 C 268.296875 418.953125 267.679688 419.128906 267.027344 419.269531 C 266.375 419.410156 265.703125 419.515625 265.011719 419.585938 C 264.324219 419.65625 263.625 419.6875 262.921875 419.679688 C 262.21875 419.675781 261.519531 419.628906 260.832031 419.550781 C 260.140625 419.46875 259.472656 419.351562 258.824219 419.199219 C 258.175781 419.046875 257.558594 418.859375 256.972656 418.640625 C 256.390625 418.421875 255.851562 418.175781 255.355469 417.898438 C 254.859375 417.621094 254.417969 417.320312 254.03125 417 C 253.644531 416.675781 253.316406 416.335938 253.050781 415.976562 C 252.785156 415.617188 252.582031 415.25 252.449219 414.871094 C 252.316406 414.492188 252.25 414.113281 252.253906 413.726562 C 252.257812 413.34375 252.328125 412.960938 252.46875 412.585938 C 252.609375 412.210938 252.816406 411.84375 253.089844 411.492188 C 253.359375 411.136719 253.695312 410.804688 254.089844 410.488281 C 254.480469 410.171875 254.929688 409.878906 255.429688 409.609375 C 255.929688 409.34375 256.472656 409.105469 257.058594 408.894531 C 257.648438 408.6875 258.265625 408.511719 258.917969 408.371094 C 259.570312 408.230469 260.242188 408.125 260.929688 408.054688 C 261.621094 407.984375 262.320312 407.953125 263.023438 407.960938 Z M 263.023438 407.960938 " fill-opacity="1" fill-rule="nonzero"/><path fill="#eba118" d="M 290.175781 415.429688 C 290.539062 415.429688 290.902344 415.453125 291.261719 415.496094 C 291.621094 415.542969 291.96875 415.605469 292.304688 415.695312 C 292.644531 415.78125 292.964844 415.886719 293.269531 416.011719 C 293.574219 416.136719 293.855469 416.28125 294.113281 416.441406 C 294.371094 416.601562 294.601562 416.773438 294.804688 416.960938 C 295.007812 417.148438 295.179688 417.347656 295.320312 417.554688 C 295.460938 417.761719 295.566406 417.976562 295.636719 418.199219 C 295.707031 418.421875 295.742188 418.644531 295.742188 418.867188 C 295.742188 419.09375 295.707031 419.316406 295.632812 419.539062 C 295.5625 419.757812 295.457031 419.972656 295.316406 420.179688 C 295.175781 420.386719 295.003906 420.585938 294.800781 420.773438 C 294.59375 420.960938 294.363281 421.132812 294.105469 421.292969 C 293.847656 421.449219 293.5625 421.589844 293.257812 421.714844 C 292.957031 421.839844 292.632812 421.945312 292.296875 422.03125 C 291.957031 422.117188 291.609375 422.183594 291.25 422.226562 C 290.890625 422.269531 290.527344 422.289062 290.160156 422.289062 C 289.796875 422.289062 289.433594 422.265625 289.074219 422.222656 C 288.714844 422.175781 288.367188 422.109375 288.027344 422.023438 C 287.691406 421.9375 287.371094 421.832031 287.066406 421.707031 C 286.761719 421.578125 286.480469 421.4375 286.222656 421.277344 C 285.964844 421.117188 285.734375 420.945312 285.53125 420.757812 C 285.328125 420.570312 285.15625 420.371094 285.015625 420.164062 C 284.875 419.953125 284.769531 419.738281 284.699219 419.519531 C 284.628906 419.296875 284.59375 419.074219 284.59375 418.847656 C 284.59375 418.625 284.628906 418.402344 284.703125 418.179688 C 284.773438 417.960938 284.878906 417.746094 285.019531 417.539062 C 285.160156 417.328125 285.332031 417.132812 285.535156 416.945312 C 285.742188 416.757812 285.972656 416.585938 286.230469 416.425781 C 286.488281 416.269531 286.773438 416.125 287.074219 416 C 287.378906 415.875 287.703125 415.773438 288.039062 415.6875 C 288.378906 415.601562 288.726562 415.535156 289.085938 415.492188 C 289.445312 415.449219 289.808594 415.429688 290.175781 415.429688 Z M 290.175781 415.429688 " fill-opacity="1" fill-rule="nonzero"/><path fill="#eba118" d="M 534.789062 467.964844 C 534.789062 468.21875 534.746094 468.46875 534.660156 468.71875 C 534.570312 468.96875 534.441406 469.210938 534.265625 469.445312 C 534.09375 469.679688 533.878906 469.90625 533.625 470.117188 C 533.371094 470.332031 533.082031 470.527344 532.761719 470.710938 C 532.4375 470.890625 532.082031 471.054688 531.703125 471.199219 C 531.320312 471.34375 530.917969 471.464844 530.496094 471.566406 C 530.070312 471.667969 529.632812 471.746094 529.183594 471.796875 C 528.734375 471.851562 528.277344 471.878906 527.816406 471.882812 C 527.359375 471.886719 526.902344 471.867188 526.449219 471.820312 C 526 471.777344 525.5625 471.707031 525.136719 471.613281 C 524.710938 471.519531 524.304688 471.40625 523.921875 471.265625 C 523.539062 471.128906 523.183594 470.972656 522.855469 470.796875 C 522.527344 470.621094 522.238281 470.429688 521.980469 470.21875 C 521.722656 470.011719 521.503906 469.789062 521.328125 469.558594 C 521.148438 469.324219 521.015625 469.085938 520.921875 468.835938 C 520.832031 468.589844 520.78125 468.339844 520.78125 468.085938 C 520.777344 467.832031 520.820312 467.582031 520.910156 467.332031 C 520.996094 467.082031 521.128906 466.839844 521.300781 466.605469 C 521.476562 466.367188 521.6875 466.144531 521.941406 465.933594 C 522.195312 465.71875 522.484375 465.519531 522.808594 465.339844 C 523.132812 465.15625 523.484375 464.996094 523.867188 464.851562 C 524.246094 464.707031 524.648438 464.582031 525.074219 464.484375 C 525.496094 464.382812 525.933594 464.304688 526.382812 464.253906 C 526.835938 464.199219 527.289062 464.171875 527.75 464.167969 C 528.210938 464.160156 528.664062 464.183594 529.117188 464.226562 C 529.570312 464.273438 530.007812 464.34375 530.433594 464.4375 C 530.859375 464.53125 531.261719 464.644531 531.648438 464.78125 C 532.03125 464.917969 532.386719 465.078125 532.710938 465.253906 C 533.039062 465.429688 533.332031 465.621094 533.589844 465.832031 C 533.84375 466.039062 534.0625 466.257812 534.242188 466.492188 C 534.417969 466.722656 534.554688 466.964844 534.644531 467.210938 C 534.738281 467.460938 534.785156 467.710938 534.789062 467.964844 Z M 534.789062 467.964844 " fill-opacity="1" fill-rule="nonzero"/><path fill="#eba118" d="M 265.5 436.582031 C 265.503906 436.796875 265.476562 437.011719 265.414062 437.222656 C 265.351562 437.4375 265.257812 437.644531 265.128906 437.847656 C 265 438.050781 264.84375 438.242188 264.65625 438.429688 C 264.464844 438.613281 264.25 438.785156 264.007812 438.941406 C 263.765625 439.101562 263.503906 439.242188 263.21875 439.371094 C 262.933594 439.496094 262.628906 439.605469 262.3125 439.695312 C 261.992188 439.785156 261.664062 439.855469 261.324219 439.90625 C 260.984375 439.957031 260.640625 439.988281 260.292969 439.996094 C 259.949219 440.003906 259.601562 439.992188 259.261719 439.957031 C 258.921875 439.925781 258.589844 439.871094 258.265625 439.796875 C 257.941406 439.722656 257.636719 439.628906 257.34375 439.515625 C 257.050781 439.402344 256.78125 439.273438 256.53125 439.125 C 256.285156 438.980469 256.058594 438.816406 255.863281 438.644531 C 255.664062 438.46875 255.5 438.28125 255.359375 438.085938 C 255.222656 437.890625 255.117188 437.6875 255.042969 437.476562 C 254.972656 437.269531 254.933594 437.054688 254.925781 436.839844 C 254.921875 436.625 254.949219 436.410156 255.011719 436.195312 C 255.074219 435.984375 255.171875 435.773438 255.300781 435.570312 C 255.425781 435.371094 255.585938 435.175781 255.773438 434.992188 C 255.960938 434.808594 256.175781 434.636719 256.417969 434.476562 C 256.660156 434.320312 256.925781 434.175781 257.210938 434.050781 C 257.496094 433.921875 257.796875 433.8125 258.117188 433.722656 C 258.433594 433.632812 258.765625 433.5625 259.105469 433.511719 C 259.441406 433.460938 259.785156 433.433594 260.132812 433.421875 C 260.480469 433.414062 260.824219 433.429688 261.167969 433.460938 C 261.507812 433.496094 261.839844 433.550781 262.164062 433.625 C 262.484375 433.699219 262.792969 433.792969 263.085938 433.90625 C 263.375 434.019531 263.644531 434.148438 263.894531 434.292969 C 264.144531 434.441406 264.367188 434.601562 264.566406 434.777344 C 264.761719 434.953125 264.929688 435.136719 265.066406 435.332031 C 265.203125 435.527344 265.308594 435.730469 265.382812 435.941406 C 265.457031 436.152344 265.496094 436.363281 265.5 436.582031 Z M 265.5 436.582031 " fill-opacity="1" fill-rule="nonzero"/><path fill="#eba118" d="M 319.382812 439.007812 C 319.386719 439.347656 319.332031 439.683594 319.214844 440.015625 C 319.097656 440.347656 318.925781 440.671875 318.691406 440.988281 C 318.460938 441.304688 318.171875 441.605469 317.832031 441.890625 C 317.492188 442.175781 317.105469 442.441406 316.671875 442.683594 C 316.238281 442.929688 315.761719 443.148438 315.25 443.34375 C 314.738281 443.539062 314.195312 443.707031 313.625 443.84375 C 313.054688 443.980469 312.46875 444.085938 311.859375 444.160156 C 311.253906 444.234375 310.640625 444.277344 310.023438 444.285156 C 309.402344 444.292969 308.789062 444.269531 308.179688 444.210938 C 307.574219 444.15625 306.980469 444.066406 306.40625 443.945312 C 305.832031 443.824219 305.289062 443.671875 304.769531 443.492188 C 304.253906 443.3125 303.773438 443.105469 303.332031 442.871094 C 302.890625 442.640625 302.496094 442.382812 302.148438 442.109375 C 301.800781 441.832031 301.503906 441.539062 301.265625 441.230469 C 301.023438 440.921875 300.839844 440.601562 300.714844 440.273438 C 300.589844 439.945312 300.523438 439.609375 300.519531 439.273438 C 300.515625 438.933594 300.570312 438.597656 300.6875 438.265625 C 300.800781 437.933594 300.976562 437.609375 301.210938 437.292969 C 301.441406 436.976562 301.726562 436.675781 302.070312 436.390625 C 302.410156 436.105469 302.796875 435.839844 303.230469 435.597656 C 303.664062 435.351562 304.136719 435.128906 304.652344 434.9375 C 305.164062 434.742188 305.703125 434.574219 306.273438 434.4375 C 306.84375 434.300781 307.433594 434.195312 308.039062 434.121094 C 308.648438 434.046875 309.257812 434.003906 309.878906 433.996094 C 310.5 433.988281 311.113281 434.011719 311.71875 434.070312 C 312.328125 434.125 312.917969 434.214844 313.492188 434.335938 C 314.066406 434.457031 314.613281 434.609375 315.132812 434.789062 C 315.648438 434.96875 316.128906 435.175781 316.570312 435.410156 C 317.011719 435.640625 317.40625 435.898438 317.753906 436.171875 C 318.101562 436.449219 318.394531 436.742188 318.636719 437.050781 C 318.878906 437.359375 319.0625 437.679688 319.1875 438.007812 C 319.3125 438.335938 319.378906 438.671875 319.382812 439.007812 Z M 319.382812 439.007812 " fill-opacity="1" fill-rule="nonzero"/><path fill="#eba118" d="M 548.554688 477.835938 C 548.902344 477.84375 549.246094 477.871094 549.585938 477.917969 C 549.925781 477.964844 550.253906 478.027344 550.574219 478.113281 C 550.894531 478.195312 551.195312 478.296875 551.480469 478.410156 C 551.765625 478.527344 552.03125 478.660156 552.273438 478.804688 C 552.515625 478.949219 552.730469 479.105469 552.917969 479.273438 C 553.109375 479.445312 553.265625 479.621094 553.394531 479.804688 C 553.523438 479.992188 553.621094 480.179688 553.683594 480.375 C 553.746094 480.570312 553.773438 480.765625 553.769531 480.964844 C 553.765625 481.160156 553.726562 481.355469 553.652344 481.546875 C 553.582031 481.738281 553.476562 481.921875 553.339844 482.101562 C 553.203125 482.28125 553.035156 482.449219 552.839844 482.609375 C 552.640625 482.769531 552.417969 482.914062 552.167969 483.046875 C 551.921875 483.179688 551.652344 483.300781 551.359375 483.402344 C 551.066406 483.503906 550.761719 483.589844 550.4375 483.65625 C 550.117188 483.722656 549.785156 483.773438 549.441406 483.804688 C 549.101562 483.832031 548.757812 483.84375 548.410156 483.835938 C 548.0625 483.828125 547.71875 483.800781 547.378906 483.753906 C 547.039062 483.707031 546.710938 483.640625 546.390625 483.558594 C 546.074219 483.472656 545.769531 483.375 545.484375 483.257812 C 545.199219 483.140625 544.933594 483.011719 544.691406 482.863281 C 544.449219 482.71875 544.234375 482.5625 544.046875 482.394531 C 543.859375 482.226562 543.699219 482.050781 543.570312 481.863281 C 543.441406 481.679688 543.347656 481.488281 543.285156 481.292969 C 543.222656 481.097656 543.191406 480.902344 543.195312 480.707031 C 543.203125 480.507812 543.238281 480.3125 543.3125 480.121094 C 543.386719 479.929688 543.488281 479.746094 543.628906 479.566406 C 543.765625 479.386719 543.929688 479.21875 544.128906 479.058594 C 544.324219 478.902344 544.546875 478.753906 544.796875 478.621094 C 545.046875 478.488281 545.316406 478.371094 545.605469 478.269531 C 545.898438 478.164062 546.207031 478.082031 546.527344 478.011719 C 546.851562 477.945312 547.183594 477.898438 547.523438 477.867188 C 547.863281 477.835938 548.210938 477.824219 548.554688 477.835938 Z M 548.554688 477.835938 " fill-opacity="1" fill-rule="nonzero"/><path fill="#eba118" d="M 246.925781 441.546875 C 246.925781 441.78125 246.886719 442.015625 246.800781 442.246094 C 246.71875 442.476562 246.59375 442.699219 246.429688 442.917969 C 246.265625 443.132812 246.0625 443.339844 245.824219 443.535156 C 245.585938 443.734375 245.3125 443.914062 245.007812 444.082031 C 244.703125 444.246094 244.371094 444.398438 244.015625 444.527344 C 243.65625 444.660156 243.277344 444.773438 242.878906 444.863281 C 242.480469 444.953125 242.070312 445.023438 241.644531 445.070312 C 241.222656 445.117188 240.796875 445.140625 240.363281 445.144531 C 239.933594 445.144531 239.503906 445.125 239.082031 445.078125 C 238.65625 445.035156 238.246094 444.96875 237.847656 444.878906 C 237.449219 444.792969 237.066406 444.683594 236.707031 444.554688 C 236.347656 444.425781 236.015625 444.277344 235.710938 444.113281 C 235.40625 443.949219 235.132812 443.769531 234.890625 443.574219 C 234.652344 443.378906 234.449219 443.175781 234.28125 442.960938 C 234.117188 442.742188 233.992188 442.519531 233.90625 442.289062 C 233.820312 442.0625 233.777344 441.828125 233.777344 441.59375 C 233.777344 441.359375 233.816406 441.125 233.902344 440.894531 C 233.984375 440.664062 234.109375 440.441406 234.273438 440.226562 C 234.4375 440.007812 234.636719 439.800781 234.878906 439.605469 C 235.117188 439.410156 235.390625 439.226562 235.695312 439.058594 C 236 438.894531 236.328125 438.746094 236.6875 438.613281 C 237.046875 438.480469 237.425781 438.371094 237.824219 438.277344 C 238.222656 438.1875 238.632812 438.117188 239.054688 438.070312 C 239.480469 438.023438 239.90625 438 240.339844 437.996094 C 240.769531 437.996094 241.199219 438.019531 241.621094 438.0625 C 242.046875 438.105469 242.457031 438.171875 242.855469 438.261719 C 243.253906 438.347656 243.632812 438.457031 243.992188 438.585938 C 244.351562 438.714844 244.683594 438.863281 244.992188 439.027344 C 245.296875 439.191406 245.570312 439.371094 245.8125 439.566406 C 246.050781 439.761719 246.253906 439.964844 246.421875 440.183594 C 246.585938 440.398438 246.710938 440.621094 246.796875 440.851562 C 246.882812 441.082031 246.925781 441.3125 246.925781 441.546875 Z M 246.925781 441.546875 " fill-opacity="1" fill-rule="nonzero"/><path fill="#eba118" d="M 521.925781 483.953125 C 521.925781 484.292969 521.871094 484.625 521.753906 484.957031 C 521.636719 485.292969 521.464844 485.613281 521.234375 485.929688 C 521.003906 486.242188 520.71875 486.542969 520.382812 486.824219 C 520.046875 487.109375 519.664062 487.371094 519.234375 487.617188 C 518.804688 487.859375 518.339844 488.074219 517.832031 488.265625 C 517.328125 488.460938 516.792969 488.621094 516.230469 488.757812 C 515.667969 488.890625 515.089844 488.992188 514.492188 489.066406 C 513.894531 489.136719 513.289062 489.175781 512.679688 489.179688 C 512.070312 489.183594 511.464844 489.15625 510.867188 489.097656 C 510.265625 489.035156 509.683594 488.945312 509.121094 488.820312 C 508.554688 488.695312 508.019531 488.539062 507.511719 488.359375 C 507 488.175781 506.53125 487.964844 506.097656 487.730469 C 505.664062 487.496094 505.277344 487.238281 504.933594 486.960938 C 504.59375 486.683594 504.304688 486.386719 504.066406 486.078125 C 503.832031 485.769531 503.652344 485.449219 503.53125 485.117188 C 503.410156 484.789062 503.347656 484.453125 503.34375 484.117188 C 503.339844 483.777344 503.398438 483.441406 503.511719 483.109375 C 503.628906 482.777344 503.804688 482.453125 504.035156 482.140625 C 504.265625 481.828125 504.546875 481.527344 504.882812 481.242188 C 505.222656 480.960938 505.605469 480.695312 506.03125 480.453125 C 506.460938 480.210938 506.929688 479.992188 507.433594 479.800781 C 507.941406 479.609375 508.476562 479.445312 509.039062 479.3125 C 509.601562 479.179688 510.179688 479.074219 510.777344 479.003906 C 511.375 478.933594 511.980469 478.894531 512.589844 478.890625 C 513.199219 478.882812 513.804688 478.910156 514.402344 478.972656 C 515 479.03125 515.582031 479.125 516.148438 479.25 C 516.710938 479.375 517.25 479.527344 517.757812 479.710938 C 518.265625 479.894531 518.738281 480.105469 519.171875 480.339844 C 519.605469 480.574219 519.992188 480.832031 520.332031 481.109375 C 520.675781 481.386719 520.964844 481.679688 521.199219 481.992188 C 521.4375 482.300781 521.613281 482.621094 521.738281 482.953125 C 521.859375 483.28125 521.921875 483.617188 521.925781 483.953125 Z M 521.925781 483.953125 " fill-opacity="1" fill-rule="nonzero"/><path fill="#eba118" d="M 545.925781 502.289062 C 545.929688 502.476562 545.898438 502.664062 545.832031 502.847656 C 545.769531 503.03125 545.671875 503.210938 545.542969 503.386719 C 545.414062 503.558594 545.257812 503.726562 545.070312 503.882812 C 544.882812 504.039062 544.671875 504.1875 544.433594 504.320312 C 544.195312 504.457031 543.9375 504.574219 543.65625 504.683594 C 543.378906 504.789062 543.082031 504.878906 542.769531 504.953125 C 542.457031 505.027344 542.136719 505.082031 541.804688 505.121094 C 541.472656 505.160156 541.140625 505.179688 540.800781 505.183594 C 540.464844 505.1875 540.128906 505.167969 539.796875 505.136719 C 539.464844 505.101562 539.144531 505.050781 538.832031 504.980469 C 538.519531 504.910156 538.222656 504.824219 537.941406 504.722656 C 537.660156 504.621094 537.398438 504.503906 537.15625 504.371094 C 536.917969 504.242188 536.703125 504.097656 536.515625 503.941406 C 536.328125 503.789062 536.167969 503.625 536.035156 503.453125 C 535.90625 503.28125 535.808594 503.101562 535.738281 502.917969 C 535.671875 502.734375 535.636719 502.546875 535.636719 502.359375 C 535.636719 502.171875 535.667969 501.988281 535.730469 501.800781 C 535.796875 501.617188 535.894531 501.4375 536.019531 501.265625 C 536.148438 501.089844 536.304688 500.925781 536.492188 500.765625 C 536.679688 500.609375 536.890625 500.464844 537.128906 500.328125 C 537.367188 500.195312 537.625 500.074219 537.90625 499.96875 C 538.1875 499.863281 538.484375 499.773438 538.792969 499.699219 C 539.105469 499.625 539.425781 499.566406 539.757812 499.527344 C 540.089844 499.488281 540.425781 499.46875 540.761719 499.464844 C 541.101562 499.464844 541.433594 499.480469 541.765625 499.515625 C 542.097656 499.546875 542.421875 499.601562 542.734375 499.671875 C 543.046875 499.738281 543.34375 499.824219 543.625 499.929688 C 543.90625 500.03125 544.167969 500.148438 544.40625 500.277344 C 544.644531 500.410156 544.859375 500.550781 545.050781 500.707031 C 545.238281 500.863281 545.398438 501.023438 545.527344 501.199219 C 545.660156 501.371094 545.757812 501.546875 545.824219 501.730469 C 545.890625 501.914062 545.925781 502.101562 545.925781 502.289062 Z M 545.925781 502.289062 " fill-opacity="1" fill-rule="nonzero"/><path fill="#eba118" d="M 508.320312 503.167969 C 508.328125 503.414062 508.292969 503.65625 508.210938 503.898438 C 508.128906 504.140625 508.003906 504.378906 507.832031 504.613281 C 507.664062 504.84375 507.453125 505.066406 507.199219 505.28125 C 506.945312 505.492188 506.660156 505.691406 506.332031 505.878906 C 506.007812 506.0625 505.65625 506.234375 505.269531 506.382812 C 504.886719 506.535156 504.480469 506.664062 504.050781 506.777344 C 503.621094 506.886719 503.175781 506.976562 502.71875 507.042969 C 502.261719 507.109375 501.796875 507.148438 501.328125 507.167969 C 500.859375 507.1875 500.394531 507.183594 499.933594 507.152344 C 499.472656 507.125 499.023438 507.070312 498.585938 506.996094 C 498.148438 506.921875 497.730469 506.824219 497.335938 506.703125 C 496.941406 506.582031 496.574219 506.441406 496.234375 506.285156 C 495.898438 506.125 495.59375 505.949219 495.324219 505.757812 C 495.054688 505.566406 494.828125 505.359375 494.640625 505.140625 C 494.449219 504.921875 494.304688 504.695312 494.207031 504.460938 C 494.105469 504.226562 494.050781 503.988281 494.039062 503.742188 C 494.03125 503.5 494.066406 503.253906 494.148438 503.011719 C 494.230469 502.769531 494.355469 502.53125 494.527344 502.300781 C 494.695312 502.066406 494.90625 501.84375 495.160156 501.632812 C 495.410156 501.417969 495.699219 501.21875 496.023438 501.035156 C 496.347656 500.847656 496.703125 500.679688 497.089844 500.527344 C 497.472656 500.375 497.878906 500.246094 498.308594 500.136719 C 498.738281 500.023438 499.183594 499.9375 499.640625 499.871094 C 500.097656 499.804688 500.5625 499.761719 501.03125 499.742188 C 501.5 499.722656 501.964844 499.730469 502.425781 499.757812 C 502.886719 499.789062 503.335938 499.839844 503.773438 499.914062 C 504.210938 499.992188 504.628906 500.089844 505.023438 500.210938 C 505.417969 500.328125 505.785156 500.46875 506.125 500.628906 C 506.460938 500.785156 506.765625 500.960938 507.035156 501.15625 C 507.300781 501.347656 507.53125 501.550781 507.71875 501.769531 C 507.90625 501.988281 508.050781 502.214844 508.152344 502.449219 C 508.253906 502.6875 508.308594 502.925781 508.320312 503.167969 Z M 508.320312 503.167969 " fill-opacity="1" fill-rule="nonzero"/><path fill="#eba118" d="M 311.378906 463.152344 C 311.234375 463.152344 311.234375 463.007812 311.378906 462.867188 C 312.09375 462.582031 314.523438 463.007812 313.953125 464.152344 C 313.808594 464.582031 313.523438 464.582031 313.238281 464.4375 Z M 311.378906 463.152344 " fill-opacity="1" fill-rule="nonzero"/><g clip-path="url(#6d4a5a4b32)"><path fill="#eba118" d="M 333.816406 749.285156 C 287.226562 699.546875 270.789062 628.085938 268.503906 561.914062 C 267.5 533.328125 267.789062 504.601562 269.789062 476.160156 C 270.074219 472.585938 270.359375 469.011719 270.933594 465.4375 C 270.933594 465.011719 271.21875 464.722656 271.644531 464.867188 L 282.792969 465.011719 C 283.222656 465.011719 283.367188 465.152344 283.367188 465.582031 C 280.652344 564.054688 276.933594 674.964844 354.398438 749.714844 C 354.683594 750 354.683594 750.140625 354.257812 750.140625 L 335.246094 750 C 334.675781 750 334.105469 749.714844 333.816406 749.285156 Z M 333.816406 749.285156 " fill-opacity="1" fill-rule="nonzero"/></g><path fill="#eba118" d="M 480.742188 749.285156 C 536.625 687.683594 533.910156 600.074219 525.765625 523.179688 C 525.765625 522.894531 525.90625 522.609375 526.191406 522.609375 L 535.195312 521.320312 C 536.339844 521.179688 537.054688 521.609375 537.339844 522.894531 C 542.199219 553.765625 543.914062 585.066406 542.484375 616.792969 C 540.34375 663.246094 528.90625 713.695312 497.035156 749.425781 C 496.75 749.714844 496.320312 750 495.894531 750 L 481.171875 750 C 480.886719 750 480.742188 749.855469 480.742188 749.570312 C 480.601562 749.570312 480.601562 749.425781 480.742188 749.285156 Z M 480.742188 749.285156 " fill-opacity="1" fill-rule="nonzero"/><path stroke-linecap="round" transform="matrix(0.75, 0.000000000000000609, -0.000000000000000609, 0.75, 82.316155, 32.366093)" fill="none" stroke-linejoin="miter" d="M 17.500336 17.501461 L 262.411807 17.501461 " stroke="#eba118" stroke-width="35" stroke-opacity="1" stroke-miterlimit="4"/><path stroke-linecap="round" transform="matrix(0.000000001309, -0.75, 0.75, 0.000000001309, 82.129915, 248.952663)" fill="none" stroke-linejoin="miter" d="M 17.499384 17.498656 L 262.410855 17.498656 " stroke="#eba118" stroke-width="35" stroke-opacity="1" stroke-miterlimit="4"/><path stroke-linecap="round" transform="matrix(0.000000001309, -0.75, 0.75, 0.000000001309, 69.188592, 777.447701)" fill="none" stroke-linejoin="miter" d="M 17.497977 17.498545 L 262.414656 17.498544 " stroke="#eba118" stroke-width="35" stroke-opacity="1" stroke-miterlimit="4"/><path stroke-linecap="round" transform="matrix(-0.75, -0.000000001309, 0.000000001309, -0.75, 292.245838, 777.633917)" fill="none" stroke-linejoin="miter" d="M 17.49966 17.501473 L 262.411131 17.501473 " stroke="#eba118" stroke-width="35" stroke-opacity="1" stroke-miterlimit="4"/><path stroke-linecap="round" transform="matrix(0, 0.75, -0.75, 0, 727.864959, 39.022998)" fill="none" stroke-linejoin="miter" d="M 17.500587 17.502238 L 262.412058 17.502238 " stroke="#eba118" stroke-width="35" stroke-opacity="1" stroke-miterlimit="4"/><path stroke-linecap="round" transform="matrix(0.75, 0.000000000000001523, -0.000000000000001523, 0.75, 517.749001, 32.366093)" fill="none" stroke-linejoin="miter" d="M 17.501332 17.501461 L 262.412803 17.501461 " stroke="#eba118" stroke-width="35" stroke-opacity="1" stroke-miterlimit="4"/><path stroke-linecap="round" transform="matrix(-0.75, -0.000000001309, 0.000000001309, -0.75, 740.620046, 777.633917)" fill="none" stroke-linejoin="miter" d="M 17.498604 17.501473 L 262.415283 17.501473 " stroke="#eba118" stroke-width="35" stroke-opacity="1" stroke-miterlimit="4"/><path stroke-linecap="round" transform="matrix(0, 0.75, -0.75, 0, 740.806262, 554.576656)" fill="none" stroke-linejoin="miter" d="M 17.501959 17.502101 L 262.41343 17.502101 " stroke="#eba118" stroke-width="35" stroke-opacity="1" stroke-miterlimit="4"/></svg>